<svg width="30" height="30" viewBox="0 0 30 30" fill="none" xmlns="http://www.w3.org/2000/svg">
<g id="day / hazmat-01_Cy_Bfd_1">
<g id="TruckMaster">
<g id="Background">
<circle id="outer-ring" cx="15" cy="15" r="13" fill="#FB1858"/>
<circle id="inner-ring" cx="15" cy="15" r="10" fill="#FAEC47"/>
</g>
<g id="Icon_Circle">
<path id="path3776 2" d="M10 19H20V8.776C20 8.483 19.547 8 19.178 8L10.821 8.008C10.44 8.008 10.008 8.446 10.008 8.747L10 19Z" fill="#333333"/>
<path id="path3810 2" d="M11 9V18H19V9H11Z" fill="#FF870F"/>
<path id="path3778 2" d="M9 18V19H21V18H9Z" fill="#333333"/>
<path id="Vector" d="M15 23C15.5523 23 16 22.3284 16 21.5C16 20.6716 15.5523 20 15 20C14.4477 20 14 20.6716 14 21.5C14 22.3284 14.4477 23 15 23Z" fill="#333333"/>
<path id="Vector_2" d="M11 20H10V23H11V20Z" fill="#333333"/>
<path id="Vector_3" d="M13 20H12V23H13V20Z" fill="#333333"/>
<path id="Vector_4" d="M20 20H19V23H20V20Z" fill="#333333"/>
<path id="Vector_5" d="M18 20H17V23H18V20Z" fill="#333333"/>
<path id="Vector_6" d="M19 21H11V22H19V21Z" fill="#333333"/>
</g>
<g id="Bars">
<path id="Vector_7" d="M24.4129 22.7346L7.09033 5.41211L5.41309 7.08935L22.7356 24.4119L24.4129 22.7346Z" fill="#FB1858"/>
</g>
</g>
</g>
</svg>
