<svg width="30" height="30" viewBox="0 0 30 30" fill="none" xmlns="http://www.w3.org/2000/svg">
<g id="day / truck-right_Cw_Bfd_1">
<g id="TruckMaster">
<g id="Background">
<circle id="outer-ring" cx="15" cy="15" r="13" fill="#FB1858"/>
<circle id="inner-ring" cx="15" cy="15" r="10" fill="white"/>
</g>
<g id="Icon_Circle">
<path id="symbol03" d="M19 18.5C19 18.775 19.225 19 19.5 19H20.5C20.775 19 21 18.775 21 18.5V17.5C21 17.225 20.775 17 20.5 17H19.5C19.225 17 19 17.225 19 17.5V18.5Z" fill="#333333"/>
<path id="symbol02" d="M18 11V15H19V12H22L23 14V18H22V17H21V16H19V17H18V18H13V17H12V16H10V17H9V18H8V11H18ZM20 15H22.422L21.484 13H20V15Z" fill="#333333"/>
<path id="symbol01" d="M10 18.5C10 18.775 10.225 19 10.5 19H11.5C11.775 19 12 18.775 12 18.5V17.5C12 17.225 11.775 17 11.5 17H10.5C10.225 17 10 17.225 10 17.5V18.5Z" fill="#333333"/>
</g>
<g id="Bars">
<path id="Vector" d="M24.4129 22.7346L7.09033 5.41211L5.41309 7.08935L22.7356 24.4119L24.4129 22.7346Z" fill="#FB1858"/>
</g>
</g>
</g>
</svg>
