<svg width="30" height="30" viewBox="0 0 30 30" fill="none" xmlns="http://www.w3.org/2000/svg">
<g id="night / numpag-03_Cw_B0_0">
<g id="TruckMaster">
<g id="Background">
<circle id="outer-ring" cx="15" cy="15" r="13" fill="#6E3434"/>
<circle id="inner-ring" cx="15" cy="15" r="10" fill="#5F626D"/>
</g>
<g id="Icon_Circle">
<path id="shape 04" d="M15 18C16.1046 18 17 17.1046 17 16C17 14.8954 16.1046 14 15 14C13.8954 14 13 14.8954 13 16C13 17.1046 13.8954 18 15 18Z" fill="#372F2F"/>
<path id="shape 03" d="M20 18C21.1046 18 22 17.1046 22 16C22 14.8954 21.1046 14 20 14C18.8954 14 18 14.8954 18 16C18 17.1046 18.8954 18 20 18Z" fill="#372F2F"/>
<path id="shape 02" d="M10 18C11.1046 18 12 17.1046 12 16C12 14.8954 11.1046 14 10 14C8.89543 14 8 14.8954 8 16C8 17.1046 8.89543 18 10 18Z" fill="#372F2F"/>
<path id="shape 01" fill-rule="evenodd" clip-rule="evenodd" d="M7.8516 12.0581C7.96881 11.9408 8.12778 11.875 8.29354 11.875H21.7065C21.8722 11.875 22.0312 11.9408 22.1484 12.0581L23.4419 13.3516C23.686 13.5957 23.686 13.9914 23.4419 14.2355C23.1979 14.4796 22.8021 14.4796 22.5581 14.2355L21.4476 13.125H8.55242L7.44194 14.2355C7.19786 14.4796 6.80214 14.4796 6.55806 14.2355C6.31398 13.9914 6.31398 13.5957 6.55806 13.3516L7.8516 12.0581Z" fill="#372F2F"/>
</g>
</g>
</g>
</svg>
