<svg width="30" height="30" viewBox="0 0 30 30" fill="none" xmlns="http://www.w3.org/2000/svg">
<g id="night / trailer-disconnected_Cy_Bfd_0">
<g id="TruckMaster">
<g id="Background">
<circle id="outer-ring" cx="15" cy="15" r="13" fill="#6E3434"/>
<circle id="inner-ring" cx="15" cy="15" r="10" fill="#50502F"/>
</g>
<g id="Icon_Circle">
<rect id="Rectangle 9" x="10" y="11" width="11" height="4" fill="#372F2F"/>
<rect id="Rectangle 10" x="10" y="16" width="3" height="2" fill="#372F2F"/>
<rect id="Rectangle 11" x="18" y="16" width="3" height="2" fill="#372F2F"/>
<rect id="Rectangle 12" x="7" y="17" width="3" height="1" fill="#372F2F"/>
<path id="Subtract" fill-rule="evenodd" clip-rule="evenodd" d="M17.5 17.5C17.5 18.6046 16.6046 19.5 15.5 19.5C14.3954 19.5 13.5 18.6046 13.5 17.5C13.5 16.3954 14.3954 15.5 15.5 15.5C16.6046 15.5 17.5 16.3954 17.5 17.5ZM15.5 18.25C15.9142 18.25 16.25 17.9142 16.25 17.5C16.25 17.0858 15.9142 16.75 15.5 16.75C15.0858 16.75 14.75 17.0858 14.75 17.5C14.75 17.9142 15.0858 18.25 15.5 18.25Z" fill="#372F2F"/>
</g>
<g id="Bars">
<path id="Vector" d="M24.4129 22.7346L7.09033 5.41211L5.41309 7.08935L22.7356 24.4119L24.4129 22.7346Z" fill="#6E3434"/>
</g>
</g>
</g>
</svg>
