<svg width="20" height="26" viewBox="0 0 20 26" fill="none" xmlns="http://www.w3.org/2000/svg">
<g id="day / shopping-bicycle">
<g id="Marker default (web &#38; mobile)">
<g id="Marker default (web &#38; mobile)_2">
<g id="background">
<path id="Background" d="M10 24.2826L6.13616 20.3055L6.13478 20.3041C3.79846 17.9183 2.6511 15.987 2.08017 14.3677C1.50968 12.7497 1.5 11.4064 1.5 10.1358C1.5 5.32763 5.32435 1.51557 10 1.50014C14.6756 1.51557 18.5 5.32776 18.5 10.1359C18.5 11.4065 18.4903 12.7498 17.9198 14.3678C17.3489 15.9872 16.2015 17.9184 13.8652 20.3043L13.8638 20.3057L10 24.2826Z" fill="#E265A7" stroke="#B34781"/>
</g>
<g id="content">
<g id="bicycle">
<path id="Vector" d="M13.225 11L12.7 8.3C12.7 7.7 12.1 7.25 11.5 7.25L10 7.25V8.3H11.5C11.575 8.3 11.65 8.375 11.725 8.45L11.875 9.5H8.725H8.35L8.2 9.05H8.5V8H5.5V9.05H7.075L7.675 11L7.75 11.15C7.525 11.075 7.3 11 7 11C5.725 11 4.75 11.975 4.75 13.25C4.75 14.525 5.725 15.5 7 15.5C7.975 15.5 8.8 14.825 9.1 13.925C9.25 14 9.325 14.075 9.475 14.075H9.55C9.625 14.075 9.775 14.075 9.85 14.075C10.225 14.075 10.525 13.925 10.825 13.775C11.05 14.75 11.95 15.5 13 15.5C14.275 15.5 15.25 14.525 15.25 13.25C15.25 12.125 14.35 11.15 13.225 11ZM7 14.45C6.325 14.45 5.8 13.925 5.8 13.25C5.8 12.575 6.325 12.05 7 12.05C7.675 12.05 8.2 12.575 8.2 13.25C8.2 13.925 7.675 14.45 7 14.45ZM9.7 13.025C9.55 13.025 9.4 12.875 9.325 12.65L8.725 10.55H12.1L10.3 12.8C10.15 13.025 9.925 13.1 9.7 13.025ZM13 14.45C12.325 14.45 11.8 13.925 11.8 13.25C11.8 12.575 12.325 12.05 13 12.05C13.675 12.05 14.2 12.575 14.2 13.25C14.2 13.925 13.675 14.45 13 14.45Z" fill="white"/>
</g>
</g>
</g>
</g>
</g>
</svg>
